<mxfile host="65bd71144e" scale="3" border="0">
    <diagram id="mTNQnJVdJxkT3bLXfCZn" name="Page-1">
        <mxGraphModel dx="1124" dy="2029" grid="1" gridSize="10" guides="1" tooltips="1" connect="1" arrows="1" fold="1" page="1" pageScale="1" pageWidth="827" pageHeight="1169" background="#FFFFFF" math="0" shadow="0">
            <root>
                <mxCell id="0"/>
                <mxCell id="1" parent="0"/>
                <mxCell id="56" value="" style="edgeStyle=none;html=1;" parent="1" source="2" target="42" edge="1">
                    <mxGeometry relative="1" as="geometry"/>
                </mxCell>
                <mxCell id="59" style="edgeStyle=none;html=1;entryX=0.5;entryY=1;entryDx=0;entryDy=0;strokeColor=#000000;" parent="1" source="2" target="42" edge="1">
                    <mxGeometry relative="1" as="geometry"/>
                </mxCell>
                <mxCell id="2" value="&lt;font data-font-src=&quot;https://fonts.googleapis.com/css?family=andika&quot;&gt;Début&lt;/font&gt;" style="whiteSpace=wrap;html=1;direction=west;arcSize=50;labelBorderColor=none;fontFamily=andika;fontSource=https%3A%2F%2Ffonts.googleapis.com%2Fcss%3Ffamily%3Dandika;fillColor=#dae8fc;strokeColor=#6c8ebf;rounded=1;gradientColor=#7ea6e0;fontColor=#000000;" parent="1" vertex="1">
                    <mxGeometry x="130" y="10" width="120" height="60" as="geometry"/>
                </mxCell>
                <mxCell id="7" value="" style="edgeStyle=none;html=1;strokeColor=#000000;" parent="1" source="3" target="6" edge="1">
                    <mxGeometry relative="1" as="geometry"/>
                </mxCell>
                <mxCell id="10" value="" style="edgeStyle=none;html=1;strokeColor=#000000;" parent="1" source="3" target="4" edge="1">
                    <mxGeometry relative="1" as="geometry"/>
                </mxCell>
                <mxCell id="3" value="&lt;font&gt;Comparaison avec le nom de la recette&lt;/font&gt;" style="whiteSpace=wrap;html=1;labelBorderColor=none;fontFamily=andika;fontSource=https%3A%2F%2Ffonts.googleapis.com%2Fcss%3Ffamily%3Dandika;fillColor=#f5f5f5;strokeColor=#666666;rounded=1;gradientColor=#b3b3b3;fontColor=#000000;" parent="1" vertex="1">
                    <mxGeometry x="339" y="135" width="120" height="60" as="geometry"/>
                </mxCell>
                <mxCell id="9" value="" style="edgeStyle=none;html=1;strokeColor=#000000;" parent="1" source="4" target="8" edge="1">
                    <mxGeometry relative="1" as="geometry"/>
                </mxCell>
                <mxCell id="11" value="" style="edgeStyle=none;html=1;strokeColor=#000000;" parent="1" source="4" target="5" edge="1">
                    <mxGeometry relative="1" as="geometry"/>
                </mxCell>
                <mxCell id="4" value="&lt;font&gt;Comparaison avec la description de la recette&lt;/font&gt;" style="whiteSpace=wrap;html=1;labelBorderColor=none;fontFamily=andika;fontSource=https%3A%2F%2Ffonts.googleapis.com%2Fcss%3Ffamily%3Dandika;fillColor=#f5f5f5;strokeColor=#666666;rounded=1;gradientColor=#b3b3b3;fontColor=#000000;" parent="1" vertex="1">
                    <mxGeometry x="509" y="135" width="120" height="60" as="geometry"/>
                </mxCell>
                <mxCell id="13" value="" style="edgeStyle=none;html=1;strokeColor=#000000;" parent="1" source="5" target="12" edge="1">
                    <mxGeometry relative="1" as="geometry"/>
                </mxCell>
                <mxCell id="5" value="&lt;font&gt;Comparaison avec les ingrédients de la recette&lt;/font&gt;" style="whiteSpace=wrap;html=1;labelBorderColor=none;fontFamily=andika;fontSource=https%3A%2F%2Ffonts.googleapis.com%2Fcss%3Ffamily%3Dandika;fillColor=#f5f5f5;strokeColor=#666666;rounded=1;gradientColor=#b3b3b3;fontColor=#000000;" parent="1" vertex="1">
                    <mxGeometry x="679" y="135" width="120" height="60" as="geometry"/>
                </mxCell>
                <mxCell id="64" style="edgeStyle=none;html=1;strokeColor=#000000;entryX=0.5;entryY=0;entryDx=0;entryDy=0;" edge="1" parent="1" source="6" target="14">
                    <mxGeometry relative="1" as="geometry">
                        <mxPoint x="399" y="420" as="targetPoint"/>
                        <Array as="points">
                            <mxPoint x="399" y="350"/>
                            <mxPoint x="569" y="350"/>
                        </Array>
                    </mxGeometry>
                </mxCell>
                <mxCell id="6" value="Stockage du résultat&lt;br&gt;null ou non-null" style="whiteSpace=wrap;html=1;labelBorderColor=none;fontFamily=andika;fontSource=https%3A%2F%2Ffonts.googleapis.com%2Fcss%3Ffamily%3Dandika;fillColor=#f8cecc;strokeColor=#b85450;rounded=1;gradientColor=#ea6b66;fontColor=#000000;" parent="1" vertex="1">
                    <mxGeometry x="339" y="255" width="120" height="60" as="geometry"/>
                </mxCell>
                <mxCell id="65" value="" style="edgeStyle=none;html=1;strokeColor=#000000;" edge="1" parent="1" source="8" target="14">
                    <mxGeometry relative="1" as="geometry"/>
                </mxCell>
                <mxCell id="8" value="Stockage du résultat&lt;br&gt;null ou non-null" style="whiteSpace=wrap;html=1;labelBorderColor=none;fontFamily=andika;fontSource=https%3A%2F%2Ffonts.googleapis.com%2Fcss%3Ffamily%3Dandika;fillColor=#f8cecc;strokeColor=#b85450;rounded=1;gradientColor=#ea6b66;fontColor=#000000;" parent="1" vertex="1">
                    <mxGeometry x="509" y="255" width="120" height="60" as="geometry"/>
                </mxCell>
                <mxCell id="66" style="edgeStyle=none;html=1;strokeColor=#000000;entryX=0.5;entryY=0;entryDx=0;entryDy=0;" edge="1" parent="1" source="12" target="14">
                    <mxGeometry relative="1" as="geometry">
                        <mxPoint x="730" y="540" as="targetPoint"/>
                        <Array as="points">
                            <mxPoint x="739" y="350"/>
                            <mxPoint x="569" y="350"/>
                        </Array>
                    </mxGeometry>
                </mxCell>
                <mxCell id="12" value="Stockage du résultat&lt;br&gt;null ou non-null" style="whiteSpace=wrap;html=1;labelBorderColor=none;fontFamily=andika;fontSource=https%3A%2F%2Ffonts.googleapis.com%2Fcss%3Ffamily%3Dandika;fillColor=#f8cecc;strokeColor=#b85450;rounded=1;gradientColor=#ea6b66;fontColor=#000000;" parent="1" vertex="1">
                    <mxGeometry x="679" y="255" width="120" height="60" as="geometry"/>
                </mxCell>
                <mxCell id="23" value="" style="edgeStyle=none;html=1;strokeColor=#000000;" parent="1" source="14" target="22" edge="1">
                    <mxGeometry relative="1" as="geometry"/>
                </mxCell>
                <mxCell id="33" style="edgeStyle=none;html=1;strokeColor=#000000;" parent="1" source="14" target="31" edge="1">
                    <mxGeometry relative="1" as="geometry"/>
                </mxCell>
                <mxCell id="14" value="Un ou&lt;br&gt;plusieurs&lt;br&gt;résultats&lt;br&gt;non-null" style="rhombus;whiteSpace=wrap;html=1;labelBorderColor=none;fontFamily=andika;fontSource=https%3A%2F%2Ffonts.googleapis.com%2Fcss%3Ffamily%3Dandika;fillColor=#fff2cc;strokeColor=#d6b656;rounded=1;gradientColor=#ffd966;fontColor=#000000;" parent="1" vertex="1">
                    <mxGeometry x="509" y="375" width="120" height="120" as="geometry"/>
                </mxCell>
                <mxCell id="27" value="" style="edgeStyle=none;html=1;strokeColor=#000000;" parent="1" source="22" target="25" edge="1">
                    <mxGeometry relative="1" as="geometry"/>
                </mxCell>
                <mxCell id="22" value="Stockage de la recette" style="whiteSpace=wrap;html=1;labelBorderColor=none;fontFamily=andika;fontSource=https%3A%2F%2Ffonts.googleapis.com%2Fcss%3Ffamily%3Dandika;fillColor=#f8cecc;strokeColor=#b85450;rounded=1;gradientColor=#ea6b66;fontColor=#000000;" parent="1" vertex="1">
                    <mxGeometry x="509" y="540" width="120" height="60" as="geometry"/>
                </mxCell>
                <mxCell id="24" value="Oui" style="text;html=1;align=center;verticalAlign=middle;whiteSpace=wrap;fontColor=#000000;labelBorderColor=none;fontFamily=andika;fontSource=https%3A%2F%2Ffonts.googleapis.com%2Fcss%3Ffamily%3Dandika;fillColor=#FFFFFF;rounded=1;" parent="1" vertex="1">
                    <mxGeometry x="580" y="500" width="40" height="20" as="geometry"/>
                </mxCell>
                <mxCell id="48" value="" style="edgeStyle=none;html=1;fontFamily=andika;fontSource=https%3A%2F%2Ffonts.googleapis.com%2Fcss%3Ffamily%3Dandika;fontColor=#000000;strokeColor=#000000;" parent="1" source="25" target="45" edge="1">
                    <mxGeometry relative="1" as="geometry"/>
                </mxCell>
                <mxCell id="63" style="edgeStyle=none;html=1;strokeColor=#000000;entryX=0.5;entryY=1;entryDx=0;entryDy=0;" parent="1" source="25" target="31" edge="1">
                    <mxGeometry relative="1" as="geometry">
                        <mxPoint x="40" y="710" as="targetPoint"/>
                        <Array as="points">
                            <mxPoint x="290" y="710"/>
                        </Array>
                    </mxGeometry>
                </mxCell>
                <mxCell id="25" value="Reste des &lt;br&gt;recettes&lt;br&gt;&amp;nbsp;à tester" style="rhombus;whiteSpace=wrap;html=1;labelBorderColor=none;fontFamily=andika;fontSource=https%3A%2F%2Ffonts.googleapis.com%2Fcss%3Ffamily%3Dandika;fillColor=#fff2cc;strokeColor=#d6b656;rounded=1;gradientColor=#ffd966;fontColor=#000000;" parent="1" vertex="1">
                    <mxGeometry x="509" y="650" width="120" height="120" as="geometry"/>
                </mxCell>
                <mxCell id="50" value="" style="edgeStyle=none;html=1;fontFamily=andika;fontSource=https%3A%2F%2Ffonts.googleapis.com%2Fcss%3Ffamily%3Dandika;fontColor=#000000;strokeColor=#000000;" parent="1" source="26" target="39" edge="1">
                    <mxGeometry relative="1" as="geometry"/>
                </mxCell>
                <mxCell id="26" value="Affichage des recettes dans l'application" style="shape=process;whiteSpace=wrap;html=1;backgroundOutline=1;labelBorderColor=none;fontFamily=andika;fontSource=https%3A%2F%2Ffonts.googleapis.com%2Fcss%3Ffamily%3Dandika;fillColor=#e6d0de;strokeColor=#996185;rounded=1;gradientColor=#d5739d;fontColor=#000000;" parent="1" vertex="1">
                    <mxGeometry x="509" y="930" width="120" height="60" as="geometry"/>
                </mxCell>
                <mxCell id="29" value="Non" style="text;html=1;align=center;verticalAlign=middle;whiteSpace=wrap;fontColor=#000000;labelBorderColor=none;fontFamily=andika;fontSource=https%3A%2F%2Ffonts.googleapis.com%2Fcss%3Ffamily%3Dandika;fillColor=#FFFFFF;rounded=1;arcSize=50;" parent="1" vertex="1">
                    <mxGeometry x="580" y="780" width="40" height="20" as="geometry"/>
                </mxCell>
                <mxCell id="41" style="edgeStyle=none;html=1;strokeColor=#000000;" parent="1" source="31" edge="1">
                    <mxGeometry relative="1" as="geometry">
                        <mxPoint x="289" y="165" as="targetPoint"/>
                    </mxGeometry>
                </mxCell>
                <mxCell id="31" value="Recette suivante" style="whiteSpace=wrap;html=1;labelBorderColor=none;fontFamily=andika;fontSource=https%3A%2F%2Ffonts.googleapis.com%2Fcss%3Ffamily%3Dandika;fillColor=#f5f5f5;strokeColor=#666666;rounded=1;gradientColor=#b3b3b3;fontColor=#000000;" parent="1" vertex="1">
                    <mxGeometry x="230" y="405" width="120" height="60" as="geometry"/>
                </mxCell>
                <mxCell id="35" value="Oui" style="text;html=1;align=center;verticalAlign=middle;whiteSpace=wrap;fontColor=#000000;labelBorderColor=none;fontFamily=andika;fontSource=https%3A%2F%2Ffonts.googleapis.com%2Fcss%3Ffamily%3Dandika;fillColor=#FFFFFF;rounded=1;" parent="1" vertex="1">
                    <mxGeometry x="419" y="680" width="40" height="20" as="geometry"/>
                </mxCell>
                <mxCell id="36" value="Non" style="text;html=1;align=center;verticalAlign=middle;whiteSpace=wrap;fontColor=#000000;labelBorderColor=none;fontFamily=andika;fontSource=https%3A%2F%2Ffonts.googleapis.com%2Fcss%3Ffamily%3Dandika;fillColor=#FFFFFF;rounded=1;" parent="1" vertex="1">
                    <mxGeometry x="419" y="405" width="40" height="20" as="geometry"/>
                </mxCell>
                <mxCell id="39" value="&lt;font data-font-src=&quot;https://fonts.googleapis.com/css?family=andika&quot;&gt;Fin&lt;br&gt;&lt;/font&gt;" style="whiteSpace=wrap;html=1;direction=west;arcSize=50;labelBorderColor=none;fontFamily=andika;fontSource=https%3A%2F%2Ffonts.googleapis.com%2Fcss%3Ffamily%3Dandika;fillColor=#dae8fc;strokeColor=#6c8ebf;rounded=1;gradientColor=#7ea6e0;fontColor=#000000;" parent="1" vertex="1">
                    <mxGeometry x="509" y="1040" width="120" height="60" as="geometry"/>
                </mxCell>
                <mxCell id="44" style="edgeStyle=none;html=1;entryX=0;entryY=0.5;entryDx=0;entryDy=0;fontFamily=andika;fontSource=https%3A%2F%2Ffonts.googleapis.com%2Fcss%3Ffamily%3Dandika;fontColor=#000000;strokeColor=#000000;" parent="1" source="42" target="3" edge="1">
                    <mxGeometry relative="1" as="geometry"/>
                </mxCell>
                <mxCell id="42" value="Saisie utilisateur" style="shape=trapezoid;perimeter=trapezoidPerimeter;whiteSpace=wrap;html=1;fixedSize=1;direction=west;fillColor=#d5e8d4;strokeColor=#82b366;fontFamily=andika;fontSource=https%3A%2F%2Ffonts.googleapis.com%2Fcss%3Ffamily%3Dandika;gradientColor=#97d077;fontColor=#000000;" parent="1" vertex="1">
                    <mxGeometry x="130" y="127.5" width="120" height="75" as="geometry"/>
                </mxCell>
                <mxCell id="49" value="" style="edgeStyle=none;html=1;fontFamily=andika;fontSource=https%3A%2F%2Ffonts.googleapis.com%2Fcss%3Ffamily%3Dandika;fontColor=#000000;strokeColor=#000000;" parent="1" source="45" target="26" edge="1">
                    <mxGeometry relative="1" as="geometry"/>
                </mxCell>
                <mxCell id="45" value="Classement par ordre alphabétique" style="whiteSpace=wrap;html=1;labelBorderColor=none;fontFamily=andika;fontSource=https%3A%2F%2Ffonts.googleapis.com%2Fcss%3Ffamily%3Dandika;fillColor=#f5f5f5;strokeColor=#666666;rounded=1;gradientColor=#b3b3b3;fontColor=#000000;" parent="1" vertex="1">
                    <mxGeometry x="509" y="820" width="120" height="60" as="geometry"/>
                </mxCell>
                <mxCell id="60" value="" style="rounded=0;whiteSpace=wrap;html=1;strokeColor=#000000;strokeWidth=2;fillColor=none;arcSize=2;" parent="1" vertex="1">
                    <mxGeometry x="100" y="-20" width="730" height="1150" as="geometry"/>
                </mxCell>
            </root>
        </mxGraphModel>
    </diagram>
</mxfile>